<svg xmlns="http://www.w3.org/2000/svg" xmlns:xlink="http://www.w3.org/1999/xlink" width="1024" height="1024" viewBox="0 0 1024 1024">
  <defs>
    <clipPath id="clip-icon">
      <rect width="1024" height="1024"/>
    </clipPath>
  </defs>
  <g id="icon" clip-path="url(#clip-icon)">
    <rect width="1024" height="1024" fill="#a8c4f5"/>
    <g id="Title" transform="translate(144.15 698)">
      <text id="roofSna" transform="translate(98 136)" fill="#001571" font-size="140" font-family="Montserrat-Regular, Montserrat"><tspan x="0" y="0">roofSna</tspan></text>
      <text id="P" transform="translate(0 136)" fill="#001571" font-size="140" font-family="Montserrat-Bold, Montserrat" font-weight="700"><tspan x="0" y="0">P</tspan></text>
      <text id="P-2" data-name="P" transform="translate(633.7 136)" fill="#001571" font-size="140" font-family="Montserrat-Bold, Montserrat" font-weight="700"><tspan x="0" y="0">P</tspan></text>
    </g>
    <g id="Komponente_3_1" data-name="Komponente 3 – 1" transform="translate(204.8 154.8)">
      <g id="Komponente_2_1" data-name="Komponente 2 – 1">
        <rect id="Rechteck_1" data-name="Rechteck 1" width="614.4" height="409.6" rx="30" transform="translate(0 102.4)" fill="#001571"/>
        <path id="Pfad_1" data-name="Pfad 1" d="M30,0H277.2c16.569,0,24.136,13.9,30,30l22.863,72.893H-20.707L0,30C6.084,9.479,13.431,0,30,0Z" transform="translate(153.6)" fill="#001571"/>
      </g>
      <circle id="Ellipse_1" data-name="Ellipse 1" cx="136" cy="136" r="136" transform="translate(171.2 171.2)" fill="#a8c4f5"/>
      <path id="fingerprint-solid" d="M95.833,92.713a8.679,8.679,0,0,0-8.693,8.707A275.2,275.2,0,0,1,76.7,181.142c-1.336,4.033.508,11.836,8.373,11.836a9.032,9.032,0,0,0,8.7-6.6,305.705,305.705,0,0,0,11.1-84.622A9.053,9.053,0,0,0,95.833,92.713Zm-.339-30.8c-23.369-.075-39.136,17.716-38.8,38.108a247.663,247.663,0,0,1-5.031,53.713,9.03,9.03,0,1,0,17.683,3.675,265.263,265.263,0,0,0,5.408-57.332C74.609,89.924,81.91,79.935,95.231,80.01c11.8.188,21.54,9.563,21.683,20.92a299.78,299.78,0,0,1-4,54.09,9.3,9.3,0,0,0,7.477,10.411c7.477,1.225,10.066-5.7,10.348-7.49a316.045,316.045,0,0,0,4.233-56.955C134.63,79.558,116.944,62.219,95.494,61.917Zm-41.62-7.463a9.062,9.062,0,0,0-12.757,1.282A65.915,65.915,0,0,0,26.555,97.952a218.647,218.647,0,0,1-3.386,42.255,9.211,9.211,0,0,0,7.244,10.505c7.571,1.319,10.205-5.605,10.2-7.3a236.183,236.183,0,0,0,3.669-45.76A50.591,50.591,0,0,1,54.815,67.194,8.729,8.729,0,0,0,53.875,54.454ZM94.7,30.948a65.449,65.449,0,0,0-16.9,1.885c-4.843.792-7.854,5.692-6.725,10.882a8.732,8.732,0,0,0,10.574,6.691,61.658,61.658,0,0,1,13.159-1.38c28.362.424,51.78,23.182,52.269,50.736a345.847,345.847,0,0,1-2.116,42.82c-.564,4.945,3.01,9.084,7.948,9.989a9.212,9.212,0,0,0,9.972-7.961,344.479,344.479,0,0,0,2.257-45.119C164.509,62.294,133.088,31.514,94.7,30.948ZM189.91,76.731a9.029,9.029,0,1,0-17.641,3.86c1.787,8.1,1.835,14.135,1.787,23.227a9.043,9.043,0,0,0,8.937,9.141,9.144,9.144,0,0,0,9.125-9C192.168,95.653,192.243,87.36,189.91,76.731ZM174.482,42.543A100.079,100.079,0,0,0,94.215-.013c-26.244-.33-50.5,9.363-68.563,27.5A89.917,89.917,0,0,0-.818,92.924l-.047,8.1a9.536,9.536,0,0,0,9.078,9.325.73.73,0,0,0,.282.038,8.762,8.762,0,0,0,8.693-8.809l.047-8.9a73.709,73.709,0,0,1,21.512-52.4,76.452,76.452,0,0,1,55.581-22.19c26.1.038,50.689,13.426,65.7,34.818a8.895,8.895,0,1,0,14.45-10.366Z" transform="translate(171.356 306.604) rotate(-45)" fill="#fff"/>
      <path id="circle-check-solid" d="M0,43.614A43.614,43.614,0,1,1,43.614,87.228,43.611,43.611,0,0,1,0,43.614Zm63.342-7.53A4.771,4.771,0,1,0,56.6,29.337L38.162,47.771l-7.53-7.53a4.771,4.771,0,0,0-6.747,6.747l10.9,10.9a4.781,4.781,0,0,0,6.747,0Z" transform="translate(495.972 127.2)" fill="#a8c4f5"/>
    </g>
  </g>
</svg>
